<mxfile host="app.diagrams.net" modified="2020-12-15T05:28:46.169Z" agent="5.0 (X11; Linux x86_64) AppleWebKit/537.36 (KHTML, like Gecko) Chrome/87.0.4280.88 Safari/537.36" etag="nAGhYPeE4qTLn2YC82Be" version="14.0.1" type="github">
  <diagram id="C5RBs43oDa-KdzZeNtuy" name="Page-1">
    <mxGraphModel dx="3716" dy="1100" grid="1" gridSize="10" guides="1" tooltips="1" connect="1" arrows="1" fold="1" page="1" pageScale="1" pageWidth="827" pageHeight="1169" math="0" shadow="0">
      <root>
        <mxCell id="WIyWlLk6GJQsqaUBKTNV-0" />
        <mxCell id="WIyWlLk6GJQsqaUBKTNV-1" parent="WIyWlLk6GJQsqaUBKTNV-0" />
        <mxCell id="AmHbZHZlYUlvdZBNM_50-43" value="SaveWriter" style="swimlane;html=1;fontStyle=1;align=center;verticalAlign=top;childLayout=stackLayout;horizontal=1;startSize=26;horizontalStack=0;resizeParent=1;resizeLast=0;collapsible=1;marginBottom=0;swimlaneFillColor=#ffffff;rounded=0;shadow=0;comic=0;labelBackgroundColor=none;strokeWidth=1;fillColor=none;fontFamily=Verdana;fontSize=15;" parent="WIyWlLk6GJQsqaUBKTNV-1" vertex="1">
          <mxGeometry x="-1522" y="405" width="270" height="248" as="geometry">
            <mxRectangle x="-1010" y="240" width="130" height="26" as="alternateBounds" />
          </mxGeometry>
        </mxCell>
        <mxCell id="PrIXuy7PniAQYLnB4FNg-18" value="- iteration" style="text;html=1;strokeColor=none;fillColor=none;align=left;verticalAlign=top;spacingLeft=4;spacingRight=4;whiteSpace=wrap;overflow=hidden;rotatable=0;points=[[0,0.5],[1,0.5]];portConstraint=eastwest;fontSize=15;" parent="AmHbZHZlYUlvdZBNM_50-43" vertex="1">
          <mxGeometry y="26" width="270" height="26" as="geometry" />
        </mxCell>
        <mxCell id="PrIXuy7PniAQYLnB4FNg-28" value="- imp" style="text;html=1;strokeColor=none;fillColor=none;align=left;verticalAlign=top;spacingLeft=4;spacingRight=4;whiteSpace=wrap;overflow=hidden;rotatable=0;points=[[0,0.5],[1,0.5]];portConstraint=eastwest;fontSize=15;" parent="AmHbZHZlYUlvdZBNM_50-43" vertex="1">
          <mxGeometry y="52" width="270" height="28" as="geometry" />
        </mxCell>
        <mxCell id="PrIXuy7PniAQYLnB4FNg-31" value="- _trial_info" style="text;html=1;strokeColor=none;fillColor=none;align=left;verticalAlign=top;spacingLeft=4;spacingRight=4;whiteSpace=wrap;overflow=hidden;rotatable=0;points=[[0,0.5],[1,0.5]];portConstraint=eastwest;fontSize=15;" parent="AmHbZHZlYUlvdZBNM_50-43" vertex="1">
          <mxGeometry y="80" width="270" height="26" as="geometry" />
        </mxCell>
        <mxCell id="PrIXuy7PniAQYLnB4FNg-32" value="- _meta_data" style="text;html=1;strokeColor=none;fillColor=none;align=left;verticalAlign=top;spacingLeft=4;spacingRight=4;whiteSpace=wrap;overflow=hidden;rotatable=0;points=[[0,0.5],[1,0.5]];portConstraint=eastwest;fontSize=15;" parent="AmHbZHZlYUlvdZBNM_50-43" vertex="1">
          <mxGeometry y="106" width="270" height="26" as="geometry" />
        </mxCell>
        <mxCell id="AmHbZHZlYUlvdZBNM_50-47" value="" style="line;html=1;strokeWidth=1;fillColor=none;align=left;verticalAlign=middle;spacingTop=-1;spacingLeft=3;spacingRight=3;rotatable=0;labelPosition=right;points=[];portConstraint=eastwest;fontSize=15;" parent="AmHbZHZlYUlvdZBNM_50-43" vertex="1">
          <mxGeometry y="132" width="270" height="12" as="geometry" />
        </mxCell>
        <mxCell id="AmHbZHZlYUlvdZBNM_50-48" value="+ set_new_trial(trail_info, meta_data)" style="text;html=1;strokeColor=none;fillColor=none;align=left;verticalAlign=top;spacingLeft=4;spacingRight=4;whiteSpace=wrap;overflow=hidden;rotatable=0;points=[[0,0.5],[1,0.5]];portConstraint=eastwest;fontSize=15;" parent="AmHbZHZlYUlvdZBNM_50-43" vertex="1">
          <mxGeometry y="144" width="270" height="26" as="geometry" />
        </mxCell>
        <mxCell id="PrIXuy7PniAQYLnB4FNg-16" value="+ write_to_trial(raw_data, user_data)" style="text;html=1;strokeColor=none;fillColor=none;align=left;verticalAlign=top;spacingLeft=4;spacingRight=4;whiteSpace=wrap;overflow=hidden;rotatable=0;points=[[0,0.5],[1,0.5]];portConstraint=eastwest;fontSize=15;" parent="AmHbZHZlYUlvdZBNM_50-43" vertex="1">
          <mxGeometry y="170" width="270" height="26" as="geometry" />
        </mxCell>
        <mxCell id="PrIXuy7PniAQYLnB4FNg-17" value="+ close_trial()" style="text;html=1;strokeColor=none;fillColor=none;align=left;verticalAlign=top;spacingLeft=4;spacingRight=4;whiteSpace=wrap;overflow=hidden;rotatable=0;points=[[0,0.5],[1,0.5]];portConstraint=eastwest;fontSize=15;" parent="AmHbZHZlYUlvdZBNM_50-43" vertex="1">
          <mxGeometry y="196" width="270" height="26" as="geometry" />
        </mxCell>
        <mxCell id="PrIXuy7PniAQYLnB4FNg-20" value="+ _import_writer(save_mode)" style="text;html=1;strokeColor=none;fillColor=none;align=left;verticalAlign=top;spacingLeft=4;spacingRight=4;whiteSpace=wrap;overflow=hidden;rotatable=0;points=[[0,0.5],[1,0.5]];portConstraint=eastwest;fontSize=15;" parent="AmHbZHZlYUlvdZBNM_50-43" vertex="1">
          <mxGeometry y="222" width="270" height="26" as="geometry" />
        </mxCell>
        <mxCell id="AmHbZHZlYUlvdZBNM_50-54" style="edgeStyle=orthogonalEdgeStyle;rounded=0;html=1;labelBackgroundColor=none;startArrow=none;startFill=0;startSize=8;endArrow=diamondThin;endFill=0;endSize=16;fontFamily=Verdana;fontSize=15;" parent="WIyWlLk6GJQsqaUBKTNV-1" source="AmHbZHZlYUlvdZBNM_50-122" edge="1" target="PrIXuy7PniAQYLnB4FNg-28">
          <mxGeometry relative="1" as="geometry">
            <mxPoint x="-1214" y="471" as="sourcePoint" />
            <mxPoint x="-1244" y="471" as="targetPoint" />
            <Array as="points">
              <mxPoint x="-1237" y="471" />
              <mxPoint x="-1237" y="471" />
            </Array>
          </mxGeometry>
        </mxCell>
        <mxCell id="AmHbZHZlYUlvdZBNM_50-122" value="&lt;span style=&quot;font-weight: normal&quot;&gt;&lt;i&gt;&amp;lt;&amp;lt;Interface&amp;gt;&amp;gt;&lt;br&gt;&lt;/i&gt;&lt;/span&gt;BaseWriter" style="swimlane;html=1;fontStyle=1;align=center;verticalAlign=top;childLayout=stackLayout;horizontal=1;startSize=50;horizontalStack=0;resizeParent=1;resizeLast=0;collapsible=1;marginBottom=0;swimlaneFillColor=#ffffff;rounded=0;shadow=0;comic=0;labelBackgroundColor=none;strokeWidth=1;fillColor=none;fontFamily=Verdana;fontSize=15;" parent="WIyWlLk6GJQsqaUBKTNV-1" vertex="1">
          <mxGeometry x="-1222" y="433" width="284" height="192" as="geometry">
            <mxRectangle x="-1010" y="240" width="130" height="26" as="alternateBounds" />
          </mxGeometry>
        </mxCell>
        <mxCell id="AmHbZHZlYUlvdZBNM_50-123" value="" style="line;html=1;strokeWidth=1;fillColor=none;align=left;verticalAlign=middle;spacingTop=-1;spacingLeft=3;spacingRight=3;rotatable=0;labelPosition=right;points=[];portConstraint=eastwest;fontSize=15;" parent="AmHbZHZlYUlvdZBNM_50-122" vertex="1">
          <mxGeometry y="50" width="284" height="12" as="geometry" />
        </mxCell>
        <mxCell id="AmHbZHZlYUlvdZBNM_50-124" value="+ create_new_file(f_name)" style="text;html=1;strokeColor=none;fillColor=none;align=left;verticalAlign=top;spacingLeft=4;spacingRight=4;whiteSpace=wrap;overflow=hidden;rotatable=0;points=[[0,0.5],[1,0.5]];portConstraint=eastwest;fontSize=15;" parent="AmHbZHZlYUlvdZBNM_50-122" vertex="1">
          <mxGeometry y="62" width="284" height="26" as="geometry" />
        </mxCell>
        <mxCell id="AmHbZHZlYUlvdZBNM_50-125" value="+ register_fields(raw_fields, user_fields)" style="text;html=1;strokeColor=none;fillColor=none;align=left;verticalAlign=top;spacingLeft=4;spacingRight=4;whiteSpace=wrap;overflow=hidden;rotatable=0;points=[[0,0.5],[1,0.5]];portConstraint=eastwest;fontSize=15;" parent="AmHbZHZlYUlvdZBNM_50-122" vertex="1">
          <mxGeometry y="88" width="284" height="26" as="geometry" />
        </mxCell>
        <mxCell id="AmHbZHZlYUlvdZBNM_50-126" value="+ write_data(user_data, raw_data)" style="text;html=1;strokeColor=none;fillColor=none;align=left;verticalAlign=top;spacingLeft=4;spacingRight=4;whiteSpace=wrap;overflow=hidden;rotatable=0;points=[[0,0.5],[1,0.5]];portConstraint=eastwest;fontSize=15;" parent="AmHbZHZlYUlvdZBNM_50-122" vertex="1">
          <mxGeometry y="114" width="284" height="26" as="geometry" />
        </mxCell>
        <mxCell id="AmHbZHZlYUlvdZBNM_50-127" value="+ write_meta_data(raw_data, user data)" style="text;html=1;strokeColor=none;fillColor=none;align=left;verticalAlign=top;spacingLeft=4;spacingRight=4;whiteSpace=wrap;overflow=hidden;rotatable=0;points=[[0,0.5],[1,0.5]];portConstraint=eastwest;fontSize=15;" parent="AmHbZHZlYUlvdZBNM_50-122" vertex="1">
          <mxGeometry y="140" width="284" height="26" as="geometry" />
        </mxCell>
        <mxCell id="PrIXuy7PniAQYLnB4FNg-0" value="+ close_file()" style="text;html=1;strokeColor=none;fillColor=none;align=left;verticalAlign=top;spacingLeft=4;spacingRight=4;whiteSpace=wrap;overflow=hidden;rotatable=0;points=[[0,0.5],[1,0.5]];portConstraint=eastwest;fontSize=15;" parent="AmHbZHZlYUlvdZBNM_50-122" vertex="1">
          <mxGeometry y="166" width="284" height="26" as="geometry" />
        </mxCell>
        <mxCell id="AmHbZHZlYUlvdZBNM_50-149" style="edgeStyle=orthogonalEdgeStyle;rounded=0;html=1;dashed=1;labelBackgroundColor=none;startArrow=none;startFill=0;startSize=8;endArrow=block;endFill=0;endSize=16;fontFamily=Verdana;fontSize=15;" parent="WIyWlLk6GJQsqaUBKTNV-1" source="AmHbZHZlYUlvdZBNM_50-55" target="AmHbZHZlYUlvdZBNM_50-122" edge="1">
          <mxGeometry relative="1" as="geometry">
            <Array as="points">
              <mxPoint x="-1418" y="662" />
              <mxPoint x="-1114" y="662" />
            </Array>
            <mxPoint x="-1024.8597285067872" y="682" as="sourcePoint" />
            <mxPoint x="-1076" y="704" as="targetPoint" />
          </mxGeometry>
        </mxCell>
        <mxCell id="AmHbZHZlYUlvdZBNM_50-150" value="&amp;nbsp; &amp;nbsp; _trial_info = trial_info&lt;br&gt;&amp;nbsp; &amp;nbsp; _meta_data = meta_data&lt;br&gt;&amp;nbsp; &amp;nbsp; iteration = 0" style="shape=note2;boundedLbl=1;whiteSpace=wrap;html=1;size=25;verticalAlign=top;align=left;fontSize=15;" parent="WIyWlLk6GJQsqaUBKTNV-1" vertex="1">
          <mxGeometry x="-1208" y="330" width="270" height="90" as="geometry" />
        </mxCell>
        <mxCell id="AmHbZHZlYUlvdZBNM_50-151" value="set_new_trial(trial_info, meta_data)" style="resizeWidth=1;part=1;strokeColor=none;fillColor=none;align=left;spacingLeft=5;fontSize=15;" parent="AmHbZHZlYUlvdZBNM_50-150" vertex="1">
          <mxGeometry width="270.0000000000001" height="25" relative="1" as="geometry" />
        </mxCell>
        <mxCell id="AmHbZHZlYUlvdZBNM_50-55" value="CsvWriter" style="swimlane;html=1;fontStyle=1;align=center;verticalAlign=top;childLayout=stackLayout;horizontal=1;startSize=26;horizontalStack=0;resizeParent=1;resizeLast=0;collapsible=1;marginBottom=0;swimlaneFillColor=#ffffff;rounded=0;shadow=0;comic=0;labelBackgroundColor=none;strokeWidth=1;fontFamily=Verdana;fontSize=15;" parent="WIyWlLk6GJQsqaUBKTNV-1" vertex="1">
          <mxGeometry x="-1512" y="672" width="168.28" height="170" as="geometry" />
        </mxCell>
        <mxCell id="AmHbZHZlYUlvdZBNM_50-56" value="" style="line;html=1;strokeWidth=1;fillColor=none;align=left;verticalAlign=middle;spacingTop=-1;spacingLeft=3;spacingRight=3;rotatable=0;labelPosition=right;points=[];portConstraint=eastwest;fontSize=15;" parent="AmHbZHZlYUlvdZBNM_50-55" vertex="1">
          <mxGeometry y="26" width="168.28" height="8" as="geometry" />
        </mxCell>
        <mxCell id="AmHbZHZlYUlvdZBNM_50-57" value="+ create_new_file(...)" style="text;html=1;strokeColor=none;fillColor=none;align=left;verticalAlign=top;spacingLeft=4;spacingRight=4;whiteSpace=wrap;overflow=hidden;rotatable=0;points=[[0,0.5],[1,0.5]];portConstraint=eastwest;fontSize=15;" parent="AmHbZHZlYUlvdZBNM_50-55" vertex="1">
          <mxGeometry y="34" width="168.28" height="26" as="geometry" />
        </mxCell>
        <mxCell id="AmHbZHZlYUlvdZBNM_50-58" value="+ register_fields(...)" style="text;html=1;strokeColor=none;fillColor=none;align=left;verticalAlign=top;spacingLeft=4;spacingRight=4;whiteSpace=wrap;overflow=hidden;rotatable=0;points=[[0,0.5],[1,0.5]];portConstraint=eastwest;fontSize=15;" parent="AmHbZHZlYUlvdZBNM_50-55" vertex="1">
          <mxGeometry y="60" width="168.28" height="26" as="geometry" />
        </mxCell>
        <mxCell id="AmHbZHZlYUlvdZBNM_50-129" value="+ write_data(...)" style="text;html=1;strokeColor=none;fillColor=none;align=left;verticalAlign=top;spacingLeft=4;spacingRight=4;whiteSpace=wrap;overflow=hidden;rotatable=0;points=[[0,0.5],[1,0.5]];portConstraint=eastwest;fontSize=15;" parent="AmHbZHZlYUlvdZBNM_50-55" vertex="1">
          <mxGeometry y="86" width="168.28" height="26" as="geometry" />
        </mxCell>
        <mxCell id="AmHbZHZlYUlvdZBNM_50-128" value="+ write_meta_data(...)" style="text;html=1;strokeColor=none;fillColor=none;align=left;verticalAlign=top;spacingLeft=4;spacingRight=4;whiteSpace=wrap;overflow=hidden;rotatable=0;points=[[0,0.5],[1,0.5]];portConstraint=eastwest;fontSize=15;" parent="AmHbZHZlYUlvdZBNM_50-55" vertex="1">
          <mxGeometry y="112" width="168.28" height="26" as="geometry" />
        </mxCell>
        <mxCell id="PrIXuy7PniAQYLnB4FNg-1" value="+ close_file()" style="text;html=1;strokeColor=none;fillColor=none;align=left;verticalAlign=top;spacingLeft=4;spacingRight=4;whiteSpace=wrap;overflow=hidden;rotatable=0;points=[[0,0.5],[1,0.5]];portConstraint=eastwest;fontSize=15;" parent="AmHbZHZlYUlvdZBNM_50-55" vertex="1">
          <mxGeometry y="138" width="168.28" height="32" as="geometry" />
        </mxCell>
        <mxCell id="PrIXuy7PniAQYLnB4FNg-2" value="XlsxWriter" style="swimlane;html=1;fontStyle=1;align=center;verticalAlign=top;childLayout=stackLayout;horizontal=1;startSize=26;horizontalStack=0;resizeParent=1;resizeLast=0;collapsible=1;marginBottom=0;swimlaneFillColor=#ffffff;rounded=0;shadow=0;comic=0;labelBackgroundColor=none;strokeWidth=1;fontFamily=Verdana;fontSize=15;" parent="WIyWlLk6GJQsqaUBKTNV-1" vertex="1">
          <mxGeometry x="-1322" y="672" width="168.28" height="170" as="geometry" />
        </mxCell>
        <mxCell id="PrIXuy7PniAQYLnB4FNg-3" value="" style="line;html=1;strokeWidth=1;fillColor=none;align=left;verticalAlign=middle;spacingTop=-1;spacingLeft=3;spacingRight=3;rotatable=0;labelPosition=right;points=[];portConstraint=eastwest;fontSize=15;" parent="PrIXuy7PniAQYLnB4FNg-2" vertex="1">
          <mxGeometry y="26" width="168.28" height="8" as="geometry" />
        </mxCell>
        <mxCell id="PrIXuy7PniAQYLnB4FNg-4" value="+ create_new_file(...)" style="text;html=1;strokeColor=none;fillColor=none;align=left;verticalAlign=top;spacingLeft=4;spacingRight=4;whiteSpace=wrap;overflow=hidden;rotatable=0;points=[[0,0.5],[1,0.5]];portConstraint=eastwest;fontSize=15;" parent="PrIXuy7PniAQYLnB4FNg-2" vertex="1">
          <mxGeometry y="34" width="168.28" height="26" as="geometry" />
        </mxCell>
        <mxCell id="PrIXuy7PniAQYLnB4FNg-5" value="+ register_fields(...)" style="text;html=1;strokeColor=none;fillColor=none;align=left;verticalAlign=top;spacingLeft=4;spacingRight=4;whiteSpace=wrap;overflow=hidden;rotatable=0;points=[[0,0.5],[1,0.5]];portConstraint=eastwest;fontSize=15;" parent="PrIXuy7PniAQYLnB4FNg-2" vertex="1">
          <mxGeometry y="60" width="168.28" height="26" as="geometry" />
        </mxCell>
        <mxCell id="PrIXuy7PniAQYLnB4FNg-6" value="+ write_data(...)" style="text;html=1;strokeColor=none;fillColor=none;align=left;verticalAlign=top;spacingLeft=4;spacingRight=4;whiteSpace=wrap;overflow=hidden;rotatable=0;points=[[0,0.5],[1,0.5]];portConstraint=eastwest;fontSize=15;" parent="PrIXuy7PniAQYLnB4FNg-2" vertex="1">
          <mxGeometry y="86" width="168.28" height="26" as="geometry" />
        </mxCell>
        <mxCell id="PrIXuy7PniAQYLnB4FNg-7" value="+ write_meta_data(...)" style="text;html=1;strokeColor=none;fillColor=none;align=left;verticalAlign=top;spacingLeft=4;spacingRight=4;whiteSpace=wrap;overflow=hidden;rotatable=0;points=[[0,0.5],[1,0.5]];portConstraint=eastwest;fontSize=15;" parent="PrIXuy7PniAQYLnB4FNg-2" vertex="1">
          <mxGeometry y="112" width="168.28" height="26" as="geometry" />
        </mxCell>
        <mxCell id="PrIXuy7PniAQYLnB4FNg-8" value="+ close_file()" style="text;html=1;strokeColor=none;fillColor=none;align=left;verticalAlign=top;spacingLeft=4;spacingRight=4;whiteSpace=wrap;overflow=hidden;rotatable=0;points=[[0,0.5],[1,0.5]];portConstraint=eastwest;fontSize=15;" parent="PrIXuy7PniAQYLnB4FNg-2" vertex="1">
          <mxGeometry y="138" width="168.28" height="32" as="geometry" />
        </mxCell>
        <mxCell id="PrIXuy7PniAQYLnB4FNg-9" value="Hdf5Writer" style="swimlane;html=1;fontStyle=1;align=center;verticalAlign=top;childLayout=stackLayout;horizontal=1;startSize=26;horizontalStack=0;resizeParent=1;resizeLast=0;collapsible=1;marginBottom=0;swimlaneFillColor=#ffffff;rounded=0;shadow=0;comic=0;labelBackgroundColor=none;strokeWidth=1;fontFamily=Verdana;fontSize=15;" parent="WIyWlLk6GJQsqaUBKTNV-1" vertex="1">
          <mxGeometry x="-1132" y="672" width="168.28" height="170" as="geometry" />
        </mxCell>
        <mxCell id="PrIXuy7PniAQYLnB4FNg-10" value="" style="line;html=1;strokeWidth=1;fillColor=none;align=left;verticalAlign=middle;spacingTop=-1;spacingLeft=3;spacingRight=3;rotatable=0;labelPosition=right;points=[];portConstraint=eastwest;fontSize=15;" parent="PrIXuy7PniAQYLnB4FNg-9" vertex="1">
          <mxGeometry y="26" width="168.28" height="8" as="geometry" />
        </mxCell>
        <mxCell id="PrIXuy7PniAQYLnB4FNg-11" value="+ create_new_file(...)" style="text;html=1;strokeColor=none;fillColor=none;align=left;verticalAlign=top;spacingLeft=4;spacingRight=4;whiteSpace=wrap;overflow=hidden;rotatable=0;points=[[0,0.5],[1,0.5]];portConstraint=eastwest;fontSize=15;" parent="PrIXuy7PniAQYLnB4FNg-9" vertex="1">
          <mxGeometry y="34" width="168.28" height="26" as="geometry" />
        </mxCell>
        <mxCell id="PrIXuy7PniAQYLnB4FNg-12" value="+ register_fields(...)" style="text;html=1;strokeColor=none;fillColor=none;align=left;verticalAlign=top;spacingLeft=4;spacingRight=4;whiteSpace=wrap;overflow=hidden;rotatable=0;points=[[0,0.5],[1,0.5]];portConstraint=eastwest;fontSize=15;" parent="PrIXuy7PniAQYLnB4FNg-9" vertex="1">
          <mxGeometry y="60" width="168.28" height="26" as="geometry" />
        </mxCell>
        <mxCell id="PrIXuy7PniAQYLnB4FNg-13" value="+ write_data(...)" style="text;html=1;strokeColor=none;fillColor=none;align=left;verticalAlign=top;spacingLeft=4;spacingRight=4;whiteSpace=wrap;overflow=hidden;rotatable=0;points=[[0,0.5],[1,0.5]];portConstraint=eastwest;fontSize=15;" parent="PrIXuy7PniAQYLnB4FNg-9" vertex="1">
          <mxGeometry y="86" width="168.28" height="26" as="geometry" />
        </mxCell>
        <mxCell id="PrIXuy7PniAQYLnB4FNg-14" value="+ write_meta_data(...)" style="text;html=1;strokeColor=none;fillColor=none;align=left;verticalAlign=top;spacingLeft=4;spacingRight=4;whiteSpace=wrap;overflow=hidden;rotatable=0;points=[[0,0.5],[1,0.5]];portConstraint=eastwest;fontSize=15;" parent="PrIXuy7PniAQYLnB4FNg-9" vertex="1">
          <mxGeometry y="112" width="168.28" height="26" as="geometry" />
        </mxCell>
        <mxCell id="PrIXuy7PniAQYLnB4FNg-15" value="+ close_file()" style="text;html=1;strokeColor=none;fillColor=none;align=left;verticalAlign=top;spacingLeft=4;spacingRight=4;whiteSpace=wrap;overflow=hidden;rotatable=0;points=[[0,0.5],[1,0.5]];portConstraint=eastwest;fontSize=15;" parent="PrIXuy7PniAQYLnB4FNg-9" vertex="1">
          <mxGeometry y="138" width="168.28" height="26" as="geometry" />
        </mxCell>
        <mxCell id="PrIXuy7PniAQYLnB4FNg-33" value="&amp;nbsp; &amp;nbsp; if iteration == 0:&lt;br&gt;&amp;nbsp; &amp;nbsp; &amp;nbsp; &amp;nbsp; imp.create_new_file(_trial_info.name)&lt;br&gt;&amp;nbsp; &amp;nbsp; &amp;nbsp; &amp;nbsp; imp.register_fields(_trial_info.raw_field,&lt;br&gt;&amp;nbsp; &amp;nbsp; &amp;nbsp; &amp;nbsp; &amp;nbsp; &amp;nbsp; &amp;nbsp; &amp;nbsp; &amp;nbsp; &amp;nbsp; &amp;nbsp; &amp;nbsp; &amp;nbsp; &amp;nbsp; &amp;nbsp; &amp;nbsp; &amp;nbsp; &amp;nbsp; &amp;nbsp; _trial_info.user_fields)&lt;br&gt;&amp;nbsp; &amp;nbsp; &amp;nbsp; &amp;nbsp; imp.write_meta_data(_meta_data)&lt;br&gt;&amp;nbsp; &amp;nbsp; imp.write_data(raw_data, user_data)&lt;br&gt;&amp;nbsp; &amp;nbsp; iteration += 1" style="shape=note2;boundedLbl=1;whiteSpace=wrap;html=1;size=25;verticalAlign=top;align=left;fontSize=15;" parent="WIyWlLk6GJQsqaUBKTNV-1" vertex="1">
          <mxGeometry x="-1542" y="220" width="310" height="171" as="geometry" />
        </mxCell>
        <mxCell id="PrIXuy7PniAQYLnB4FNg-34" value="write_to_trial(raw_data, user_data)" style="resizeWidth=1;part=1;strokeColor=none;fillColor=none;align=left;spacingLeft=5;fontSize=15;" parent="PrIXuy7PniAQYLnB4FNg-33" vertex="1">
          <mxGeometry width="310.0000000000001" height="25" relative="1" as="geometry" />
        </mxCell>
        <mxCell id="PrIXuy7PniAQYLnB4FNg-36" value="&amp;nbsp; &amp;nbsp; if iteration &amp;gt; 0:&lt;br&gt;&amp;nbsp; &amp;nbsp; &amp;nbsp; &amp;nbsp; imp.close_file()&lt;br&gt;&amp;nbsp; &amp;nbsp; iteration = 0" style="shape=note2;boundedLbl=1;whiteSpace=wrap;html=1;size=25;verticalAlign=top;align=left;fontSize=15;" parent="WIyWlLk6GJQsqaUBKTNV-1" vertex="1">
          <mxGeometry x="-1088" y="230" width="150" height="90" as="geometry" />
        </mxCell>
        <mxCell id="PrIXuy7PniAQYLnB4FNg-37" value="close_trial()" style="resizeWidth=1;part=1;strokeColor=none;fillColor=none;align=left;spacingLeft=5;fontSize=15;" parent="PrIXuy7PniAQYLnB4FNg-36" vertex="1">
          <mxGeometry width="150.00000000000006" height="25" relative="1" as="geometry" />
        </mxCell>
        <mxCell id="PrIXuy7PniAQYLnB4FNg-39" style="edgeStyle=orthogonalEdgeStyle;rounded=0;html=1;dashed=1;labelBackgroundColor=none;startArrow=none;startFill=0;startSize=8;endArrow=block;endFill=0;endSize=16;fontFamily=Verdana;fontSize=15;" parent="WIyWlLk6GJQsqaUBKTNV-1" source="PrIXuy7PniAQYLnB4FNg-2" target="AmHbZHZlYUlvdZBNM_50-122" edge="1">
          <mxGeometry relative="1" as="geometry">
            <Array as="points">
              <mxPoint x="-1232" y="662" />
              <mxPoint x="-1114" y="662" />
            </Array>
            <mxPoint x="-1273" y="682" as="sourcePoint" />
            <mxPoint x="-1114" y="624" as="targetPoint" />
          </mxGeometry>
        </mxCell>
        <mxCell id="PrIXuy7PniAQYLnB4FNg-40" style="edgeStyle=orthogonalEdgeStyle;rounded=0;html=1;dashed=1;labelBackgroundColor=none;startArrow=none;startFill=0;startSize=8;endArrow=block;endFill=0;endSize=16;fontFamily=Verdana;fontSize=15;" parent="WIyWlLk6GJQsqaUBKTNV-1" source="PrIXuy7PniAQYLnB4FNg-9" target="AmHbZHZlYUlvdZBNM_50-122" edge="1">
          <mxGeometry relative="1" as="geometry">
            <Array as="points">
              <mxPoint x="-1032" y="662" />
              <mxPoint x="-1114" y="662" />
            </Array>
            <mxPoint x="-1104" y="682" as="sourcePoint" />
            <mxPoint x="-1104" y="624" as="targetPoint" />
          </mxGeometry>
        </mxCell>
        <mxCell id="DF5kBo6IlGlXPHQ93BRQ-0" value="&amp;nbsp; &amp;nbsp; 1. create raw data hdf5 group and dataset&lt;br&gt;&amp;nbsp; &amp;nbsp; 2. create user data hdf5 group and&amp;nbsp;dataset&lt;br&gt;&amp;nbsp;&amp;nbsp;" style="shape=note2;boundedLbl=1;whiteSpace=wrap;html=1;size=25;verticalAlign=top;align=left;fontSize=15;" vertex="1" parent="WIyWlLk6GJQsqaUBKTNV-1">
          <mxGeometry x="-1240" y="850" width="310" height="73" as="geometry" />
        </mxCell>
        <mxCell id="DF5kBo6IlGlXPHQ93BRQ-1" value="register_fields(raw_fields, user_fields)" style="resizeWidth=1;part=1;strokeColor=none;fillColor=none;align=left;spacingLeft=5;fontSize=15;" vertex="1" parent="DF5kBo6IlGlXPHQ93BRQ-0">
          <mxGeometry width="310.00000000000017" height="25" relative="1" as="geometry" />
        </mxCell>
        <mxCell id="DF5kBo6IlGlXPHQ93BRQ-2" style="edgeStyle=orthogonalEdgeStyle;rounded=0;orthogonalLoop=1;jettySize=auto;html=1;exitX=0;exitY=0.5;exitDx=0;exitDy=0;dashed=1;endArrow=none;endFill=0;" edge="1" parent="WIyWlLk6GJQsqaUBKTNV-1" source="PrIXuy7PniAQYLnB4FNg-12" target="DF5kBo6IlGlXPHQ93BRQ-1">
          <mxGeometry relative="1" as="geometry">
            <Array as="points">
              <mxPoint x="-1142" y="745" />
            </Array>
          </mxGeometry>
        </mxCell>
        <mxCell id="DF5kBo6IlGlXPHQ93BRQ-5" value="&amp;nbsp; &amp;nbsp; write raw_fields and user_fields in header&lt;br&gt;&amp;nbsp;&amp;nbsp;" style="shape=note2;boundedLbl=1;whiteSpace=wrap;html=1;size=25;verticalAlign=top;align=left;fontSize=15;" vertex="1" parent="WIyWlLk6GJQsqaUBKTNV-1">
          <mxGeometry x="-1560" y="863" width="314" height="60" as="geometry" />
        </mxCell>
        <mxCell id="DF5kBo6IlGlXPHQ93BRQ-6" value="register_fields(raw_fields, user_fields)" style="resizeWidth=1;part=1;strokeColor=none;fillColor=none;align=left;spacingLeft=5;fontSize=15;" vertex="1" parent="DF5kBo6IlGlXPHQ93BRQ-5">
          <mxGeometry width="314.0000000000002" height="25" relative="1" as="geometry" />
        </mxCell>
        <mxCell id="DF5kBo6IlGlXPHQ93BRQ-7" style="edgeStyle=orthogonalEdgeStyle;rounded=0;orthogonalLoop=1;jettySize=auto;html=1;exitX=0;exitY=0.5;exitDx=0;exitDy=0;dashed=1;endArrow=none;endFill=0;" edge="1" parent="WIyWlLk6GJQsqaUBKTNV-1" source="AmHbZHZlYUlvdZBNM_50-58" target="DF5kBo6IlGlXPHQ93BRQ-5">
          <mxGeometry relative="1" as="geometry">
            <mxPoint x="-1592" y="882" as="targetPoint" />
            <Array as="points">
              <mxPoint x="-1542" y="745" />
              <mxPoint x="-1542" y="850" />
              <mxPoint x="-1354" y="850" />
            </Array>
          </mxGeometry>
        </mxCell>
        <mxCell id="DF5kBo6IlGlXPHQ93BRQ-8" style="edgeStyle=orthogonalEdgeStyle;rounded=0;orthogonalLoop=1;jettySize=auto;html=1;exitX=0;exitY=0.5;exitDx=0;exitDy=0;dashed=1;endArrow=none;endFill=0;" edge="1" parent="WIyWlLk6GJQsqaUBKTNV-1" source="PrIXuy7PniAQYLnB4FNg-5" target="DF5kBo6IlGlXPHQ93BRQ-5">
          <mxGeometry relative="1" as="geometry">
            <Array as="points">
              <mxPoint x="-1332" y="745" />
            </Array>
          </mxGeometry>
        </mxCell>
        <mxCell id="DF5kBo6IlGlXPHQ93BRQ-9" style="edgeStyle=orthogonalEdgeStyle;rounded=0;orthogonalLoop=1;jettySize=auto;html=1;exitX=0;exitY=0.5;exitDx=0;exitDy=0;dashed=1;endArrow=none;endFill=0;" edge="1" parent="WIyWlLk6GJQsqaUBKTNV-1" source="AmHbZHZlYUlvdZBNM_50-48" target="AmHbZHZlYUlvdZBNM_50-150">
          <mxGeometry relative="1" as="geometry">
            <Array as="points">
              <mxPoint x="-1542" y="562" />
              <mxPoint x="-1542" y="400" />
            </Array>
          </mxGeometry>
        </mxCell>
        <mxCell id="DF5kBo6IlGlXPHQ93BRQ-10" style="edgeStyle=orthogonalEdgeStyle;rounded=0;orthogonalLoop=1;jettySize=auto;html=1;exitX=0;exitY=0.5;exitDx=0;exitDy=0;dashed=1;endArrow=none;endFill=0;" edge="1" parent="WIyWlLk6GJQsqaUBKTNV-1" source="PrIXuy7PniAQYLnB4FNg-16" target="PrIXuy7PniAQYLnB4FNg-33">
          <mxGeometry relative="1" as="geometry">
            <Array as="points">
              <mxPoint x="-1560" y="588" />
              <mxPoint x="-1560" y="298" />
            </Array>
          </mxGeometry>
        </mxCell>
        <mxCell id="DF5kBo6IlGlXPHQ93BRQ-11" style="edgeStyle=orthogonalEdgeStyle;rounded=0;orthogonalLoop=1;jettySize=auto;html=1;exitX=0;exitY=0.5;exitDx=0;exitDy=0;dashed=1;endArrow=none;endFill=0;" edge="1" parent="WIyWlLk6GJQsqaUBKTNV-1" source="PrIXuy7PniAQYLnB4FNg-17" target="PrIXuy7PniAQYLnB4FNg-36">
          <mxGeometry relative="1" as="geometry">
            <Array as="points">
              <mxPoint x="-1580" y="614" />
              <mxPoint x="-1580" y="210" />
              <mxPoint x="-1013" y="210" />
            </Array>
          </mxGeometry>
        </mxCell>
      </root>
    </mxGraphModel>
  </diagram>
</mxfile>
